{"title":"Justin Bieber Ft. Big Sean - As Long As You Love Me [Music Video","uid":8770779,"size":55942335,"categoryP":"video","categoryS":"music_videos","magnet":"?xt=urn:btih:e41be5ab509fff0d68a07ed18e8ae3f5660cb0c2&amp;dn=Justin+Bieber+Ft.+Big+Sean+-+As+Long+As+You+Love+Me+%5BMusic+Video&amp;tr=udp%3A%2F%2Ftracker.openbittorrent.com%3A80&amp;tr=udp%3A%2F%2Fopen.demonii.com%3A1337&amp;tr=udp%3A%2F%2Ftracker.coppersurfer.tk%3A6969&amp;tr=udp%3A%2F%2Fexodus.desync.com%3A6969","seeders":1,"leechers":0,"uploader":"Sbyky","files":-1,"time":1375449836,"description":"[IMG]http://www.shotpix.com/photos/20130802137544031445179.jpg[/IMG]\n\nGeneral\nComplete name                            : Justin Bieber Ft. Big Sean - As Long As You Love Me [Music Video] 720p [Sbyky].MP4\nFormat                                   : MPEG-4\nFormat profile                           : Base Media / Version 2\nCodec ID                                 : mp42\nFile size                                : 53.4 MiB\nDuration                                 : 5mn 51s\nOverall bit rate mode                    : Variable\nOverall bit rate                         : 1 273 Kbps\nEncoded date                             : UTC 2012-07-30 17:37:19\nTagged date                              : UTC 2012-07-30 17:37:19\n\nVideo\nID                                       : 1\nFormat                                   : AVC\nFormat/Info                              : Advanced Video Codec\nFormat profile                           : &lt;a class=&quot;__cf_email__&quot; href=&quot;/cdn-cgi/l/email-protection&quot; data-cfemail=&quot;eaa2838d82aaa6d9c4db&quot;&gt;[email&amp;#160;protected]&lt;/a&gt;&lt;script cf-hash='f9e31' type=&quot;text/javascript&quot;&gt;\n/* &lt;![CDATA[ */!function(){try{var t=&quot;currentScript&quot;in document?document.currentScript:function(){for(var t=document.getElementsByTagName(&quot;script&quot;),e=t.length;e--;)if(t[e].getAttribute(&quot;cf-hash&quot;))return t[e]}();if(t&amp;&amp;t.previousSibling){var e,r,n,i,c=t.previousSibling,a=c.getAttribute(&quot;data-cfemail&quot;);if(a){for(e=&quot;&quot;,r=parseInt(a.substr(0,2),16),n=2;a.length-n;n+=2)i=parseInt(a.substr(n,2),16)^r,e+=String.fromCharCode(i);e=document.createTextNode(e),c.parentNode.replaceChild(e,c)}}}catch(u){}}();/* ]]&gt; */&lt;/script&gt;\nFormat settings, CABAC                   : Yes\nFormat settings, ReFrames                : 1 frame\nCodec ID                                 : avc1\nCodec ID/Info                            : Advanced Video Coding\nDuration                                 : 5mn 51s\nBit rate                                 : 1 078 Kbps\nMaximum bit rate                         : 5 916 Kbps\nWidth                                    : 1 280 pixels\nHeight                                   : 720 pixels\nDisplay aspect ratio                     : 16:9\nFrame rate mode                          : Constant\nFrame rate                               : 23.976 fps\nColor space                              : YUV\nChroma subsampling                       : 4:2:0\nBit depth                                : 8 bits\nScan type                                : Progressive\nBits/(Pixel*Frame)                       : 0.049\nStream size                              : 45.2 MiB (85%)\nTagged date                              : UTC 2012-07-30 17:37:21\n\nAudio\nID                                       : 2\nFormat                                   : AAC\nFormat/Info                              : Advanced Audio Codec\nFormat profile                           : LC\nCodec ID                                 : 40\nDuration                                 : 5mn 51s\nBit rate mode                            : Variable\nBit rate                                 : 192 Kbps\nMaximum bit rate                         : 202 Kbps\nChannel(s)                               : 2 channels\nChannel positions                        : Front: L R\nSampling rate                            : 44.1 KHz\nCompression mode                         : Lossy\nStream size                              : 8.05 MiB (15%)\nTitle                                    : IsoMedia File Produced by Google, 5-11-2011\nEncoded date                             : UTC 2012-07-30 17:37:20\nTagged date                              : UTC 2012-07-30 17:37:21\n\nShared By Sbyky\n[IMG]http://www.shotpix.com/photos/20130722137449689157289.gif[/IMG]\n[IMG]http://www.shotpix.com/photos/20130722137449694197310.gif[/IMG]","torrent":{"xt":"urn:btih:e41be5ab509fff0d68a07ed18e8ae3f5660cb0c2","amp;dn":"Justin+Bieber+Ft.+Big+Sean+-+As+Long+As+You+Love+Me+%5BMusic+Video","amp;tr":["udp%3A%2F%2Ftracker.openbittorrent.com%3A80","udp%3A%2F%2Fopen.demonii.com%3A1337","udp%3A%2F%2Ftracker.coppersurfer.tk%3A6969","udp%3A%2F%2Fexodus.desync.com%3A6969"],"infoHash":"e41be5ab509fff0d68a07ed18e8ae3f5660cb0c2","infoHashBuffer":{"type":"Buffer","data":[228,27,229,171,80,159,255,13,104,160,126,209,142,138,227,245,102,12,176,194]},"announce":[],"urlList":[]}}